<svg xmlns="http://www.w3.org/2000/svg" xmlns:xlink="http://www.w3.org/1999/xlink" width="500" zoomAndPan="magnify" viewBox="0 0 375 374.999991" height="500" preserveAspectRatio="xMidYMid meet" version="1.0"><defs><clipPath id="55e2789f52"><path d="M 91.140625 20.640625 L 283.890625 20.640625 L 283.890625 354.390625 L 91.140625 354.390625 Z M 91.140625 20.640625 " clip-rule="nonzero"/></clipPath></defs><g clip-path="url(#55e2789f52)"><path fill="#231f20" d="M 263.328125 20.640625 C 274.636719 20.644531 283.84375 29.691406 283.851562 40.808594 L 283.855469 334.21875 C 283.847656 345.34375 274.640625 354.390625 263.324219 354.390625 L 111.714844 354.390625 C 100.398438 354.386719 91.1875 345.339844 91.179688 334.21875 L 91.171875 40.808594 C 91.171875 35.410156 93.320312 30.339844 97.21875 26.527344 C 101.097656 22.730469 106.242188 20.644531 111.707031 20.640625 L 263.328125 20.640625 " fill-opacity="1" fill-rule="nonzero"/></g><path fill="#424242" d="M 215.128906 28.625 C 215.132812 27.339844 214.082031 26.292969 212.792969 26.292969 L 162.355469 26.292969 C 161.070312 26.289062 160.015625 27.339844 160.015625 28.628906 L 160.015625 32.136719 C 160.015625 33.421875 161.070312 34.472656 162.351562 34.476562 L 212.792969 34.472656 C 214.082031 34.476562 215.132812 33.421875 215.132812 32.132812 L 215.128906 28.625 " fill-opacity="1" fill-rule="nonzero"/><path fill="#f2f2f2" d="M 111.714844 343.929688 C 106.164062 343.929688 101.644531 339.570312 101.640625 334.214844 L 101.632812 50.25 C 101.632812 47.652344 102.632812 45.300781 104.53125 43.449219 C 106.445312 41.574219 108.996094 40.542969 111.707031 40.542969 L 263.328125 40.542969 C 268.871094 40.542969 273.390625 44.902344 273.390625 50.25 L 273.394531 334.222656 C 273.390625 339.570312 268.875 343.929688 263.320312 343.933594 L 111.714844 343.929688 " fill-opacity="1" fill-rule="nonzero"/><path fill="#666666" d="M 256.390625 66.773438 L 118.625 66.78125 L 118.625 55.300781 L 256.390625 55.292969 L 256.390625 66.773438 " fill-opacity="1" fill-rule="nonzero"/><path fill="#666666" d="M 238.820312 230.253906 L 136.214844 230.261719 L 136.214844 223.800781 L 238.820312 223.792969 L 238.820312 230.253906 " fill-opacity="1" fill-rule="nonzero"/><path fill="#999999" d="M 256.390625 82.558594 L 118.628906 82.566406 L 118.628906 78.363281 L 256.390625 78.355469 L 256.390625 82.558594 " fill-opacity="1" fill-rule="nonzero"/><path fill="#999999" d="M 256.394531 92.242188 L 118.628906 92.25 L 118.628906 88.046875 L 256.394531 88.039062 L 256.394531 92.242188 " fill-opacity="1" fill-rule="nonzero"/><path fill="#999999" d="M 172.320312 101.933594 L 118.628906 101.9375 L 118.628906 97.734375 L 172.320312 97.730469 L 172.320312 101.933594 " fill-opacity="1" fill-rule="nonzero"/><path fill="#999999" d="M 256.398438 202.949219 L 128.96875 202.957031 L 128.96875 200.007812 L 256.398438 200 L 256.398438 202.949219 " fill-opacity="1" fill-rule="nonzero"/><path fill="#999999" d="M 256.398438 209.199219 L 118.636719 209.210938 L 118.636719 206.261719 L 256.398438 206.253906 L 256.398438 209.199219 " fill-opacity="1" fill-rule="nonzero"/><path fill="#999999" d="M 223.066406 215.453125 L 118.636719 215.460938 L 118.636719 212.511719 L 223.066406 212.507812 L 223.066406 215.453125 " fill-opacity="1" fill-rule="nonzero"/><path fill="#0b74af" d="M 256.398438 251.246094 L 118.636719 251.253906 L 118.636719 236.886719 L 256.398438 236.875 L 256.398438 251.246094 " fill-opacity="1" fill-rule="nonzero"/><path fill="#cccccc" d="M 256.402344 264.761719 L 118.636719 264.769531 L 118.636719 264.238281 L 256.402344 264.230469 L 256.402344 264.761719 " fill-opacity="1" fill-rule="nonzero"/><path fill="#ffffff" d="M 183.433594 247.007812 L 157.398438 247.011719 L 157.398438 241.121094 L 183.433594 241.121094 L 183.433594 247.007812 " fill-opacity="1" fill-rule="nonzero"/><path fill="#ffffff" d="M 217.636719 247.007812 L 191.601562 247.007812 L 191.601562 241.121094 L 217.636719 241.117188 L 217.636719 247.007812 " fill-opacity="1" fill-rule="nonzero"/><path fill="#ffffff" d="M 149.234375 247.011719 L 123.199219 247.011719 L 123.199219 241.125 L 149.234375 241.121094 L 149.234375 247.011719 " fill-opacity="1" fill-rule="nonzero"/><path fill="#ffffff" d="M 251.839844 247.007812 L 225.804688 247.007812 L 225.804688 241.117188 L 251.839844 241.117188 L 251.839844 247.007812 " fill-opacity="1" fill-rule="nonzero"/><path fill="#999999" d="M 179.914062 259.605469 L 160.921875 259.605469 L 160.921875 255.882812 L 179.914062 255.878906 L 179.914062 259.605469 " fill-opacity="1" fill-rule="nonzero"/><path fill="#999999" d="M 214.96875 259.601562 L 194.269531 259.605469 L 194.269531 255.878906 L 214.96875 255.878906 L 214.96875 259.601562 " fill-opacity="1" fill-rule="nonzero"/><path fill="#999999" d="M 150.394531 259.605469 L 122.039062 259.605469 L 122.039062 255.882812 L 150.394531 255.882812 L 150.394531 259.605469 " fill-opacity="1" fill-rule="nonzero"/><path fill="#999999" d="M 250.027344 259.601562 L 227.617188 259.601562 L 227.617188 255.878906 L 250.027344 255.875 L 250.027344 259.601562 " fill-opacity="1" fill-rule="nonzero"/><path fill="#cccccc" d="M 256.402344 278.90625 L 118.640625 278.914062 L 118.640625 278.378906 L 256.402344 278.375 L 256.402344 278.90625 " fill-opacity="1" fill-rule="nonzero"/><path fill="#999999" d="M 183.4375 273.75 L 157.402344 273.75 L 157.402344 270.027344 L 183.4375 270.023438 L 183.4375 273.75 " fill-opacity="1" fill-rule="nonzero"/><path fill="#999999" d="M 212.410156 273.746094 L 196.835938 273.746094 L 196.835938 270.023438 L 212.410156 270.023438 L 212.410156 273.746094 " fill-opacity="1" fill-rule="nonzero"/><path fill="#999999" d="M 144.140625 273.75 L 128.292969 273.753906 L 128.292969 270.027344 L 144.140625 270.027344 L 144.140625 273.75 " fill-opacity="1" fill-rule="nonzero"/><path fill="#999999" d="M 243.160156 273.746094 L 234.488281 273.746094 L 234.488281 270.023438 L 243.160156 270.023438 L 243.160156 273.746094 " fill-opacity="1" fill-rule="nonzero"/><path fill="#cccccc" d="M 256.402344 293.050781 L 118.640625 293.058594 L 118.640625 292.527344 L 256.402344 292.519531 L 256.402344 293.050781 " fill-opacity="1" fill-rule="nonzero"/><path fill="#999999" d="M 178.042969 287.890625 L 162.800781 287.894531 L 162.800781 284.171875 L 178.042969 284.167969 L 178.042969 287.890625 " fill-opacity="1" fill-rule="nonzero"/><path fill="#999999" d="M 214.972656 287.890625 L 194.273438 287.890625 L 194.273438 284.167969 L 214.972656 284.167969 L 214.972656 287.890625 " fill-opacity="1" fill-rule="nonzero"/><path fill="#999999" d="M 149.234375 287.894531 L 123.199219 287.894531 L 123.199219 284.171875 L 149.234375 284.171875 L 149.234375 287.894531 " fill-opacity="1" fill-rule="nonzero"/><path fill="#999999" d="M 252.734375 287.886719 L 224.914062 287.890625 L 224.914062 284.167969 L 252.734375 284.164062 L 252.734375 287.886719 " fill-opacity="1" fill-rule="nonzero"/><path fill="#cccccc" d="M 256.402344 307.195312 L 118.640625 307.203125 L 118.640625 306.667969 L 256.402344 306.660156 L 256.402344 307.195312 " fill-opacity="1" fill-rule="nonzero"/><path fill="#999999" d="M 183.4375 302.039062 L 157.402344 302.039062 L 157.402344 298.3125 L 183.4375 298.3125 L 183.4375 302.039062 " fill-opacity="1" fill-rule="nonzero"/><path fill="#999999" d="M 213.132812 302.035156 L 196.113281 302.035156 L 196.113281 298.3125 L 213.132812 298.3125 L 213.132812 302.035156 " fill-opacity="1" fill-rule="nonzero"/><path fill="#999999" d="M 147.832031 302.039062 L 124.605469 302.039062 L 124.605469 298.316406 L 147.832031 298.3125 L 147.832031 302.039062 " fill-opacity="1" fill-rule="nonzero"/><path fill="#999999" d="M 249.105469 302.035156 L 228.542969 302.035156 L 228.542969 298.3125 L 249.105469 298.308594 L 249.105469 302.035156 " fill-opacity="1" fill-rule="nonzero"/><path fill="#cccccc" d="M 256.40625 321.339844 L 118.640625 321.347656 L 118.640625 320.816406 L 256.40625 320.808594 L 256.40625 321.339844 " fill-opacity="1" fill-rule="nonzero"/><path fill="#999999" d="M 181.632812 316.179688 L 159.210938 316.183594 L 159.210938 312.460938 L 181.632812 312.457031 L 181.632812 316.179688 " fill-opacity="1" fill-rule="nonzero"/><path fill="#999999" d="M 217.640625 316.179688 L 191.605469 316.179688 L 191.605469 312.457031 L 217.640625 312.457031 L 217.640625 316.179688 " fill-opacity="1" fill-rule="nonzero"/><path fill="#999999" d="M 139.941406 316.183594 L 132.5 316.183594 L 132.496094 312.460938 L 139.941406 312.460938 L 139.941406 316.183594 " fill-opacity="1" fill-rule="nonzero"/><path fill="#999999" d="M 246.585938 316.175781 L 231.066406 316.179688 L 231.066406 312.453125 L 246.585938 312.453125 L 246.585938 316.175781 " fill-opacity="1" fill-rule="nonzero"/><path fill="#cccccc" d="M 256.40625 335.484375 L 118.640625 335.492188 L 118.640625 334.957031 L 256.40625 334.949219 L 256.40625 335.484375 " fill-opacity="1" fill-rule="nonzero"/><path fill="#999999" d="M 183.441406 330.324219 L 157.40625 330.324219 L 157.40625 326.601562 L 183.441406 326.601562 L 183.441406 330.324219 " fill-opacity="1" fill-rule="nonzero"/><path fill="#999999" d="M 211.496094 330.324219 L 197.753906 330.324219 L 197.753906 326.601562 L 211.496094 326.601562 L 211.496094 330.324219 " fill-opacity="1" fill-rule="nonzero"/><path fill="#999999" d="M 146.605469 330.328125 L 125.835938 330.328125 L 125.835938 326.605469 L 146.605469 326.601562 L 146.605469 330.328125 " fill-opacity="1" fill-rule="nonzero"/><path fill="#999999" d="M 250.683594 330.324219 L 226.96875 330.324219 L 226.96875 326.597656 L 250.683594 326.597656 L 250.683594 330.324219 " fill-opacity="1" fill-rule="nonzero"/><path fill="#5ac965" d="M 139.003906 156.335938 C 139.003906 155.769531 139.035156 155.210938 139.089844 154.660156 L 118.824219 152.566406 C 118.695312 153.808594 118.632812 155.066406 118.632812 156.335938 C 118.632812 163.117188 120.503906 169.445312 123.714844 174.894531 L 141.265625 164.582031 C 139.835938 162.164062 139.003906 159.351562 139.003906 156.335938 " fill-opacity="1" fill-rule="nonzero"/><path fill="#4583f7" d="M 171.601562 156.335938 C 171.601562 159.832031 170.492188 163.0625 168.617188 165.714844 L 185.261719 177.441406 C 189.476562 171.46875 191.976562 164.199219 191.976562 156.332031 C 191.976562 136.082031 175.554688 119.664062 155.300781 119.667969 L 155.300781 140.039062 C 164.304688 140.039062 171.601562 147.332031 171.601562 156.335938 " fill-opacity="1" fill-rule="nonzero"/><path fill="#f47026" d="M 168.617188 165.714844 C 165.667969 169.894531 160.808594 172.632812 155.304688 172.632812 C 149.316406 172.632812 144.097656 169.394531 141.265625 164.582031 L 123.714844 174.894531 C 130.089844 185.71875 141.835938 193.003906 155.304688 193.003906 C 167.691406 193.003906 178.621094 186.84375 185.261719 177.441406 L 168.617188 165.714844 " fill-opacity="1" fill-rule="nonzero"/><path fill="#feb04b" d="M 144.535156 144.121094 L 131.074219 128.859375 C 124.347656 134.796875 119.785156 143.140625 118.824219 152.566406 L 139.089844 154.660156 C 139.519531 150.46875 141.546875 146.761719 144.535156 144.121094 " fill-opacity="1" fill-rule="nonzero"/><path fill="#e63ecd" d="M 153.375 133.925781 L 153.375 113.554688 C 144.078125 113.554688 135.613281 117.042969 129.148438 122.746094 L 142.609375 138.015625 C 145.480469 135.476562 149.242188 133.925781 153.375 133.925781 " fill-opacity="1" fill-rule="nonzero"/><path fill="#999999" d="M 225.472656 146.160156 L 200.902344 146.160156 L 200.902344 144.765625 L 225.472656 144.765625 L 225.472656 146.160156 " fill-opacity="1" fill-rule="nonzero"/><path fill="#999999" d="M 216.027344 148.78125 L 200.902344 148.78125 L 200.902344 147.386719 L 216.027344 147.386719 L 216.027344 148.78125 " fill-opacity="1" fill-rule="nonzero"/><path fill="#999999" d="M 256.394531 146.160156 L 233.136719 146.160156 L 233.136719 144.765625 L 256.394531 144.765625 L 256.394531 146.160156 " fill-opacity="1" fill-rule="nonzero"/><path fill="#999999" d="M 247.457031 148.777344 L 233.136719 148.78125 L 233.136719 147.382812 L 247.453125 147.382812 L 247.457031 148.777344 " fill-opacity="1" fill-rule="nonzero"/><path fill="#999999" d="M 256.394531 159.835938 L 208.613281 159.839844 L 208.613281 157.878906 L 256.394531 157.875 L 256.394531 159.835938 " fill-opacity="1" fill-rule="nonzero"/><path fill="#999999" d="M 256.394531 164.652344 L 200.902344 164.65625 L 200.902344 162.695312 L 256.394531 162.691406 L 256.394531 164.652344 " fill-opacity="1" fill-rule="nonzero"/><path fill="#999999" d="M 256.394531 169.46875 L 200.902344 169.472656 L 200.902344 167.511719 L 256.394531 167.511719 L 256.394531 169.46875 " fill-opacity="1" fill-rule="nonzero"/><path fill="#999999" d="M 256.394531 174.285156 L 200.902344 174.289062 L 200.902344 172.332031 L 256.394531 172.328125 L 256.394531 174.285156 " fill-opacity="1" fill-rule="nonzero"/><path fill="#999999" d="M 256.394531 179.101562 L 200.902344 179.105469 L 200.902344 177.148438 L 256.394531 177.144531 L 256.394531 179.101562 " fill-opacity="1" fill-rule="nonzero"/><path fill="#999999" d="M 256.394531 183.917969 L 200.902344 183.921875 L 200.902344 181.964844 L 256.394531 181.960938 L 256.394531 183.917969 " fill-opacity="1" fill-rule="nonzero"/><path fill="#999999" d="M 226.472656 188.738281 L 200.902344 188.738281 L 200.902344 186.78125 L 226.472656 186.78125 L 226.472656 188.738281 " fill-opacity="1" fill-rule="nonzero"/><path fill="#4583f7" d="M 212.351562 128.855469 L 212.347656 117.40625 C 206.027344 117.40625 200.902344 122.53125 200.902344 128.855469 C 200.902344 135.175781 206.027344 140.300781 212.351562 140.300781 C 215.402344 140.300781 218.160156 139.085938 220.210938 137.136719 L 212.351562 128.855469 " fill-opacity="1" fill-rule="nonzero"/><path fill="#3d67b8" d="M 221.886719 136.265625 C 224.085938 134.179688 225.46875 131.25 225.46875 127.980469 C 225.46875 121.65625 220.34375 116.53125 214.023438 116.53125 L 214.023438 127.980469 L 221.886719 136.265625 " fill-opacity="1" fill-rule="nonzero"/><path fill="#b0309d" d="M 254.421875 119.257812 C 252.320312 116.835938 249.257812 115.269531 245.800781 115.269531 L 245.800781 126.714844 C 245.800781 126.714844 250.6875 122.488281 254.421875 119.257812 " fill-opacity="1" fill-rule="nonzero"/><path fill="#e63ecd" d="M 244.945312 128.851562 L 244.945312 117.402344 C 238.625 117.402344 233.496094 122.53125 233.496094 128.851562 C 233.5 135.171875 238.625 140.300781 244.945312 140.300781 C 248 140.296875 250.757812 139.085938 252.808594 137.136719 C 255.007812 135.050781 256.394531 132.121094 256.394531 128.851562 C 256.394531 125.984375 255.304688 123.398438 253.566406 121.390625 C 249.835938 124.621094 244.945312 128.851562 244.945312 128.851562 " fill-opacity="1" fill-rule="nonzero"/><path fill="#666666" d="M 164.742188 157.027344 L 145.867188 157.027344 L 145.867188 150.566406 L 164.738281 150.566406 L 164.742188 157.027344 " fill-opacity="1" fill-rule="nonzero"/><path fill="#666666" d="M 161.867188 162.304688 L 148.738281 162.304688 L 148.738281 159.585938 L 161.867188 159.585938 L 161.867188 162.304688 " fill-opacity="1" fill-rule="nonzero"/><path fill="#f6f6f6" d="M 101.640625 324.15625 L 101.640625 303.027344 L 125.1875 278.914062 L 145.816406 278.914062 L 140.679688 284.171875 L 123.199219 284.171875 L 123.199219 287.894531 L 137.046875 287.894531 L 132.523438 292.527344 L 118.640625 292.527344 L 118.640625 293.058594 L 132.003906 293.058594 L 126.867188 298.316406 L 124.605469 298.316406 L 124.605469 300.636719 L 118.714844 306.667969 L 118.640625 306.667969 L 118.640625 306.742188 L 101.640625 324.15625 M 125.707031 278.378906 L 130.226562 273.75 L 144.140625 273.75 L 144.140625 270.027344 L 133.863281 270.027344 L 138.996094 264.769531 L 159.625 264.769531 L 146.335938 278.378906 L 125.707031 278.378906 M 139.519531 264.234375 L 144.039062 259.605469 L 150.394531 259.605469 L 150.394531 255.882812 L 147.675781 255.882812 L 152.195312 251.253906 L 172.824219 251.253906 L 168.304688 255.878906 L 160.921875 255.882812 L 160.921875 259.605469 L 164.667969 259.605469 L 160.148438 264.234375 L 139.519531 264.234375 M 166.226562 236.882812 L 172.695312 230.257812 L 193.324219 230.257812 L 186.855469 236.878906 L 166.226562 236.882812 M 179.003906 223.796875 L 187.144531 215.457031 L 207.773438 215.457031 L 199.632812 223.796875 L 179.003906 223.796875 M 190.023438 212.511719 L 193.25 209.203125 L 213.882812 209.203125 L 210.652344 212.507812 L 190.023438 212.511719 M 196.128906 206.253906 L 199.355469 202.953125 L 219.984375 202.949219 L 216.757812 206.253906 L 196.128906 206.253906 M 202.234375 200.003906 L 213.234375 188.738281 L 226.472656 188.738281 L 226.472656 186.78125 L 215.148438 186.78125 L 217.9375 183.921875 L 238.566406 183.921875 L 222.863281 200 L 202.234375 200.003906 " fill-opacity="1" fill-rule="nonzero"/><path fill="#949494" d="M 172.695312 230.257812 L 179.003906 223.796875 L 199.632812 223.796875 L 193.324219 230.257812 L 172.695312 230.257812 " fill-opacity="1" fill-rule="nonzero"/><path fill="#b8b8b8" d="M 199.355469 202.953125 L 202.234375 200.003906 L 222.863281 200 L 219.984375 202.949219 L 199.355469 202.953125 " fill-opacity="1" fill-rule="nonzero"/><path fill="#b8b8b8" d="M 193.25 209.203125 L 196.128906 206.253906 L 216.757812 206.253906 L 213.882812 209.203125 L 193.25 209.203125 " fill-opacity="1" fill-rule="nonzero"/><path fill="#b8b8b8" d="M 187.144531 215.457031 L 190.023438 212.511719 L 210.652344 212.507812 L 207.773438 215.457031 L 187.144531 215.457031 " fill-opacity="1" fill-rule="nonzero"/><path fill="#559ec7" d="M 152.195312 251.253906 L 157.398438 245.921875 L 157.398438 247.011719 L 176.964844 247.011719 L 172.824219 251.253906 L 152.195312 251.253906 M 162.085938 241.121094 L 166.226562 236.882812 L 186.855469 236.878906 L 182.714844 241.121094 L 162.085938 241.121094 " fill-opacity="1" fill-rule="nonzero"/><path fill="#dbdbdb" d="M 138.996094 264.769531 L 139.519531 264.234375 L 160.148438 264.234375 L 159.625 264.769531 L 138.996094 264.769531 " fill-opacity="1" fill-rule="nonzero"/><path fill="#ffffff" d="M 157.398438 247.011719 L 157.398438 245.921875 L 162.085938 241.121094 L 182.714844 241.121094 L 176.964844 247.011719 L 157.398438 247.011719 " fill-opacity="1" fill-rule="nonzero"/><path fill="#b8b8b8" d="M 160.921875 259.605469 L 160.921875 255.882812 L 168.304688 255.878906 L 164.667969 259.605469 L 160.921875 259.605469 " fill-opacity="1" fill-rule="nonzero"/><path fill="#b8b8b8" d="M 144.039062 259.605469 L 147.675781 255.882812 L 150.394531 255.882812 L 150.394531 259.605469 L 144.039062 259.605469 " fill-opacity="1" fill-rule="nonzero"/><path fill="#dbdbdb" d="M 125.1875 278.914062 L 125.707031 278.378906 L 146.335938 278.378906 L 145.816406 278.914062 L 125.1875 278.914062 " fill-opacity="1" fill-rule="nonzero"/><path fill="#b8b8b8" d="M 130.226562 273.75 L 133.863281 270.027344 L 144.140625 270.027344 L 144.140625 273.75 L 130.226562 273.75 " fill-opacity="1" fill-rule="nonzero"/><path fill="#dbdbdb" d="M 118.640625 293.058594 L 118.640625 292.527344 L 132.523438 292.527344 L 132.003906 293.058594 L 118.640625 293.058594 " fill-opacity="1" fill-rule="nonzero"/><path fill="#b8b8b8" d="M 123.199219 287.894531 L 123.199219 284.171875 L 140.679688 284.171875 L 137.046875 287.894531 L 123.199219 287.894531 " fill-opacity="1" fill-rule="nonzero"/><path fill="#dbdbdb" d="M 118.640625 306.742188 L 118.640625 306.667969 L 118.714844 306.667969 L 118.640625 306.742188 " fill-opacity="1" fill-rule="nonzero"/><path fill="#b8b8b8" d="M 124.605469 300.636719 L 124.605469 298.316406 L 126.867188 298.316406 L 124.605469 300.636719 " fill-opacity="1" fill-rule="nonzero"/><path fill="#f6f6f6" d="M 101.640625 281.957031 L 101.636719 248.816406 L 101.636719 225.621094 L 118.636719 208.214844 L 118.636719 209.210938 L 172.675781 209.207031 L 169.449219 212.511719 L 118.636719 212.511719 L 118.636719 215.460938 L 166.570312 215.457031 L 158.425781 223.796875 L 136.214844 223.800781 L 136.214844 230.261719 L 152.117188 230.257812 L 145.652344 236.882812 L 118.636719 236.886719 L 118.636719 251.253906 L 131.617188 251.253906 L 127.097656 255.882812 L 122.039062 255.882812 L 122.039062 259.605469 L 123.460938 259.605469 L 118.941406 264.238281 L 118.636719 264.238281 L 118.636719 264.546875 L 101.640625 281.957031 M 120.542969 206.261719 L 137.824219 188.5625 C 143.015625 191.394531 148.972656 193.003906 155.304688 193.003906 C 167.691406 193.003906 178.621094 186.84375 185.261719 177.441406 L 168.617188 165.714844 C 165.667969 169.894531 160.808594 172.632812 155.304688 172.632812 C 154.6875 172.632812 154.078125 172.597656 153.476562 172.53125 L 171.453125 154.117188 C 171.550781 154.84375 171.601562 155.582031 171.601562 156.335938 C 171.601562 159.832031 170.492188 163.0625 168.617188 165.714844 L 185.261719 177.441406 C 189.476562 171.46875 191.976562 164.199219 191.976562 156.332031 C 191.976562 149.6875 190.207031 143.457031 187.117188 138.078125 L 231.871094 92.246094 L 256.394531 92.242188 L 256.394531 88.039062 L 235.972656 88.039062 L 241.324219 82.558594 L 256.390625 82.558594 L 256.390625 78.355469 L 245.429688 78.355469 L 273.339844 49.769531 C 273.351562 49.933594 273.390625 50.085938 273.390625 50.25 L 273.390625 106.054688 L 255.46875 124.410156 C 254.992188 123.304688 254.34375 122.292969 253.566406 121.390625 C 249.835938 124.621094 244.945312 128.851562 244.945312 128.851562 L 244.945312 117.402344 C 238.625 117.402344 233.496094 122.53125 233.496094 128.851562 C 233.5 133.6875 236.5 137.820312 240.738281 139.5 L 235.59375 144.765625 L 233.136719 144.765625 L 233.136719 146.160156 L 234.234375 146.160156 L 222.792969 157.878906 L 208.613281 157.878906 L 208.613281 159.839844 L 220.878906 159.839844 L 218.089844 162.695312 L 200.902344 162.695312 L 200.902344 164.65625 L 216.175781 164.652344 L 213.382812 167.511719 L 200.902344 167.511719 L 200.902344 169.472656 L 211.472656 169.472656 L 208.679688 172.332031 L 200.902344 172.332031 L 200.902344 174.289062 L 206.769531 174.289062 L 203.976562 177.148438 L 200.902344 177.148438 L 200.902344 179.105469 L 202.066406 179.105469 L 181.65625 200.003906 L 128.96875 200.007812 L 128.96875 202.957031 L 178.78125 202.953125 L 175.554688 206.257812 L 120.542969 206.261719 M 216.027344 147.386719 L 200.902344 147.386719 L 200.902344 148.78125 L 216.027344 148.78125 L 216.027344 147.386719 M 225.472656 144.765625 L 200.902344 144.765625 L 200.902344 146.160156 L 225.472656 146.160156 L 225.472656 144.765625 M 212.347656 117.40625 C 206.027344 117.40625 200.902344 122.53125 200.902344 128.855469 C 200.902344 135.175781 206.027344 140.300781 212.351562 140.300781 C 215.402344 140.300781 218.160156 139.085938 220.210938 137.136719 L 212.351562 128.855469 L 212.347656 117.40625 M 214.023438 116.53125 L 214.023438 127.980469 L 221.886719 136.265625 C 224.085938 134.179688 225.46875 131.25 225.46875 127.980469 C 225.46875 121.65625 220.34375 116.53125 214.023438 116.53125 M 245.800781 115.269531 L 245.800781 126.714844 C 245.800781 126.714844 250.6875 122.488281 254.421875 119.257812 C 252.320312 116.835938 249.257812 115.269531 245.800781 115.269531 " fill-opacity="1" fill-rule="nonzero"/><path fill="#949494" d="M 136.214844 230.261719 L 136.214844 223.800781 L 158.425781 223.796875 L 152.117188 230.257812 L 136.214844 230.261719 " fill-opacity="1" fill-rule="nonzero"/><path fill="#b8b8b8" d="M 241.324219 82.558594 L 245.429688 78.355469 L 256.390625 78.355469 L 256.390625 82.558594 L 241.324219 82.558594 " fill-opacity="1" fill-rule="nonzero"/><path fill="#b8b8b8" d="M 231.871094 92.246094 L 235.972656 88.039062 L 256.394531 88.039062 L 256.394531 92.242188 L 231.871094 92.246094 " fill-opacity="1" fill-rule="nonzero"/><path fill="#b8b8b8" d="M 128.96875 202.957031 L 128.96875 200.007812 L 181.65625 200.003906 L 178.78125 202.953125 L 128.96875 202.957031 " fill-opacity="1" fill-rule="nonzero"/><path fill="#b8b8b8" d="M 118.636719 209.210938 L 118.636719 208.214844 L 120.542969 206.261719 L 175.554688 206.257812 L 172.675781 209.207031 L 118.636719 209.210938 " fill-opacity="1" fill-rule="nonzero"/><path fill="#b8b8b8" d="M 118.636719 215.460938 L 118.636719 212.511719 L 169.449219 212.511719 L 166.570312 215.457031 L 118.636719 215.460938 " fill-opacity="1" fill-rule="nonzero"/><path fill="#559ec7" d="M 118.636719 251.253906 L 118.636719 236.886719 L 145.652344 236.882812 L 141.511719 241.125 L 123.199219 241.125 L 123.199219 247.011719 L 135.757812 247.011719 L 131.617188 251.253906 L 118.636719 251.253906 " fill-opacity="1" fill-rule="nonzero"/><path fill="#dbdbdb" d="M 118.636719 264.546875 L 118.636719 264.238281 L 118.941406 264.238281 L 118.636719 264.546875 " fill-opacity="1" fill-rule="nonzero"/><path fill="#ffffff" d="M 123.199219 247.011719 L 123.199219 241.125 L 141.511719 241.125 L 135.757812 247.011719 L 123.199219 247.011719 " fill-opacity="1" fill-rule="nonzero"/><path fill="#b8b8b8" d="M 122.039062 259.605469 L 122.039062 255.882812 L 127.097656 255.882812 L 123.460938 259.605469 L 122.039062 259.605469 " fill-opacity="1" fill-rule="nonzero"/><path fill="#7da8f9" d="M 185.261719 177.441406 L 168.617188 165.714844 C 170.492188 163.0625 171.601562 159.832031 171.601562 156.335938 C 171.601562 155.582031 171.550781 154.84375 171.453125 154.117188 L 187.117188 138.078125 C 190.207031 143.457031 191.976562 149.6875 191.976562 156.332031 C 191.976562 164.199219 189.476562 171.46875 185.261719 177.441406 " fill-opacity="1" fill-rule="nonzero"/><path fill="#f79b68" d="M 155.304688 193.003906 C 148.972656 193.003906 143.015625 191.394531 137.824219 188.5625 L 153.476562 172.53125 C 154.078125 172.597656 154.6875 172.632812 155.304688 172.632812 C 160.808594 172.632812 165.667969 169.894531 168.617188 165.714844 L 185.261719 177.441406 C 178.621094 186.84375 167.691406 193.003906 155.304688 193.003906 " fill-opacity="1" fill-rule="nonzero"/><path fill="#b8b8b8" d="M 200.902344 146.160156 L 200.902344 144.765625 L 225.472656 144.765625 L 225.472656 146.160156 L 200.902344 146.160156 " fill-opacity="1" fill-rule="nonzero"/><path fill="#b8b8b8" d="M 200.902344 148.78125 L 200.902344 147.386719 L 216.027344 147.386719 L 216.027344 148.78125 L 200.902344 148.78125 " fill-opacity="1" fill-rule="nonzero"/><path fill="#b8b8b8" d="M 233.136719 146.160156 L 233.136719 144.765625 L 235.59375 144.765625 L 234.234375 146.160156 L 233.136719 146.160156 " fill-opacity="1" fill-rule="nonzero"/><path fill="#b8b8b8" d="M 208.613281 159.839844 L 208.613281 157.878906 L 222.792969 157.878906 L 220.878906 159.839844 L 208.613281 159.839844 " fill-opacity="1" fill-rule="nonzero"/><path fill="#b8b8b8" d="M 200.902344 164.65625 L 200.902344 162.695312 L 218.089844 162.695312 L 216.175781 164.652344 L 200.902344 164.65625 " fill-opacity="1" fill-rule="nonzero"/><path fill="#b8b8b8" d="M 200.902344 169.472656 L 200.902344 167.511719 L 213.382812 167.511719 L 211.472656 169.472656 L 200.902344 169.472656 " fill-opacity="1" fill-rule="nonzero"/><path fill="#b8b8b8" d="M 200.902344 174.289062 L 200.902344 172.332031 L 208.679688 172.332031 L 206.769531 174.289062 L 200.902344 174.289062 " fill-opacity="1" fill-rule="nonzero"/><path fill="#f6f6f6" d="M 219.851562 181.964844 L 222.640625 179.105469 L 243.269531 179.101562 L 240.480469 181.960938 L 219.851562 181.964844 M 224.554688 177.144531 L 227.34375 174.289062 L 247.972656 174.285156 L 245.183594 177.144531 L 224.554688 177.144531 M 229.257812 172.328125 L 232.046875 169.46875 L 252.675781 169.46875 L 249.886719 172.328125 L 229.257812 172.328125 M 233.960938 167.511719 L 236.75 164.652344 L 256.394531 164.652344 L 256.394531 162.691406 L 238.664062 162.695312 L 241.453125 159.835938 L 256.394531 159.835938 L 256.394531 157.875 L 243.367188 157.878906 L 254.808594 146.160156 L 256.394531 146.160156 L 256.394531 144.765625 L 256.171875 144.765625 L 273.390625 127.128906 L 273.390625 148.253906 L 254.589844 167.511719 L 233.960938 167.511719 " fill-opacity="1" fill-rule="nonzero"/><path fill="#b8b8b8" d="M 254.808594 146.160156 L 256.171875 144.765625 L 256.394531 144.765625 L 256.394531 146.160156 L 254.808594 146.160156 " fill-opacity="1" fill-rule="nonzero"/><path fill="#b8b8b8" d="M 241.453125 159.835938 L 243.367188 157.878906 L 256.394531 157.875 L 256.394531 159.835938 L 241.453125 159.835938 " fill-opacity="1" fill-rule="nonzero"/><path fill="#b8b8b8" d="M 236.75 164.652344 L 238.664062 162.695312 L 256.394531 162.691406 L 256.394531 164.652344 L 236.75 164.652344 " fill-opacity="1" fill-rule="nonzero"/><path fill="#b8b8b8" d="M 232.046875 169.46875 L 233.960938 167.511719 L 254.589844 167.511719 L 252.675781 169.46875 L 232.046875 169.46875 " fill-opacity="1" fill-rule="nonzero"/><path fill="#b8b8b8" d="M 227.34375 174.289062 L 229.257812 172.328125 L 249.886719 172.328125 L 247.972656 174.285156 L 227.34375 174.289062 " fill-opacity="1" fill-rule="nonzero"/><path fill="#b8b8b8" d="M 200.902344 179.105469 L 200.902344 177.148438 L 203.976562 177.148438 L 202.066406 179.105469 L 200.902344 179.105469 M 222.640625 179.105469 L 224.554688 177.144531 L 245.183594 177.144531 L 243.269531 179.101562 L 222.640625 179.105469 " fill-opacity="1" fill-rule="nonzero"/><path fill="#b8b8b8" d="M 217.9375 183.921875 L 219.851562 181.964844 L 240.480469 181.960938 L 238.566406 183.921875 L 217.9375 183.921875 " fill-opacity="1" fill-rule="nonzero"/><path fill="#b8b8b8" d="M 213.234375 188.738281 L 215.148438 186.78125 L 226.472656 186.78125 L 226.472656 188.738281 L 213.234375 188.738281 " fill-opacity="1" fill-rule="nonzero"/><path fill="#7da8f9" d="M 212.351562 140.300781 C 206.027344 140.300781 200.902344 135.175781 200.902344 128.855469 C 200.902344 122.53125 206.027344 117.40625 212.347656 117.40625 L 212.351562 128.855469 L 220.210938 137.136719 C 218.160156 139.085938 215.402344 140.300781 212.351562 140.300781 " fill-opacity="1" fill-rule="nonzero"/><path fill="#7895cd" d="M 221.886719 136.265625 L 214.023438 127.980469 L 214.023438 116.53125 C 220.34375 116.53125 225.46875 121.65625 225.46875 127.980469 C 225.46875 131.25 224.085938 134.179688 221.886719 136.265625 " fill-opacity="1" fill-rule="nonzero"/><path fill="#c86fbb" d="M 245.800781 126.714844 L 245.800781 115.269531 C 249.257812 115.269531 252.320312 116.835938 254.421875 119.257812 C 250.6875 122.488281 245.800781 126.714844 245.800781 126.714844 " fill-opacity="1" fill-rule="nonzero"/><path fill="#ee78dc" d="M 240.738281 139.5 C 236.5 137.820312 233.5 133.6875 233.496094 128.851562 C 233.496094 122.53125 238.625 117.402344 244.945312 117.402344 L 244.945312 128.851562 C 244.945312 128.851562 249.835938 124.621094 253.566406 121.390625 C 254.34375 122.292969 254.992188 123.304688 255.46875 124.410156 L 240.738281 139.5 " fill-opacity="1" fill-rule="nonzero"/></svg>