<svg xmlns="http://www.w3.org/2000/svg" xmlns:xlink="http://www.w3.org/1999/xlink" width="500" zoomAndPan="magnify" viewBox="0 0 375 374.999991" height="500" preserveAspectRatio="xMidYMid meet" version="1.0"><defs><clipPath id="c223272e5a"><path d="M 37.5 182 L 338.25 182 L 338.25 337.5 L 37.5 337.5 Z M 37.5 182 " clip-rule="nonzero"/></clipPath><clipPath id="7337d2f974"><path d="M 162 37.5 L 214 37.5 L 214 89 L 162 89 Z M 162 37.5 " clip-rule="nonzero"/></clipPath></defs><rect x="-37.5" width="450" fill="#ffffff" y="-37.499999" height="449.999989" fill-opacity="1"/><rect x="-37.5" width="450" fill="#ffffff" y="-37.499999" height="449.999989" fill-opacity="1"/><g clip-path="url(#c223272e5a)"><path fill="#292424" d="M 319.265625 186.191406 C 318.253906 185.597656 313.335938 183.058594 307.820312 185.179688 L 187.875 305.164062 L 67.929688 185.179688 C 62.414062 183.035156 57.496094 185.597656 56.484375 186.191406 L 187.875 317.621094 Z M 311.847656 197.179688 L 187.875 321.191406 L 63.902344 197.179688 C 57.039062 190.316406 47.636719 186.628906 37.957031 187.003906 L 37.5 187.023438 L 187.875 337.457031 L 338.25 187.023438 L 337.792969 187.003906 C 328.113281 186.628906 318.710938 190.316406 311.847656 197.179688 Z M 304.230469 185.199219 C 302.664062 184.109375 299.75 182.640625 295.820312 182.976562 C 292.667969 183.253906 289.75 184.722656 287.511719 186.964844 L 187.875 286.441406 L 88.238281 186.964844 C 86 184.722656 83.082031 183.253906 79.929688 182.976562 C 75.980469 182.640625 73.085938 184.109375 71.519531 185.199219 L 187.875 301.59375 Z M 304.230469 185.199219 " fill-opacity="1" fill-rule="nonzero"/></g><path fill="#292424" d="M 174.289062 205.886719 C 174.289062 215.585938 175.238281 223.640625 177.144531 230.046875 C 179.046875 236.472656 182.359375 239.667969 187.082031 239.667969 C 189.421875 239.667969 191.1875 239.210938 192.417969 238.28125 C 193.648438 237.367188 194.402344 236.335938 194.71875 235.203125 C 195.015625 234.074219 195.214844 232.726562 195.273438 231.199219 C 195.332031 229.671875 195.371094 227.765625 195.371094 225.484375 L 195.371094 221.894531 C 195.371094 219.257812 195.273438 217.472656 195.09375 216.558594 C 194.917969 214.535156 194.5 213.167969 193.84375 212.414062 C 193.210938 211.679688 192.199219 211.222656 190.851562 211.023438 C 189.5 210.847656 188.273438 210.726562 187.160156 210.707031 C 186.050781 210.667969 185.039062 210.628906 184.125 210.570312 L 184.125 209.101562 L 227.210938 209.101562 L 227.210938 210.570312 L 222.964844 210.847656 C 221.058594 211.023438 219.789062 211.480469 219.136719 212.195312 C 218.5 212.910156 218.085938 214.296875 217.886719 216.382812 L 217.707031 220.707031 L 217.707031 232.765625 L 217.886719 241.054688 L 216.496094 241.054688 C 215.703125 239.269531 214.296875 237.644531 212.3125 236.175781 C 210.308594 234.710938 208.128906 233.976562 205.726562 233.976562 C 203.585938 233.976562 200.511719 235.285156 196.523438 237.921875 C 192.535156 240.5625 187.261719 241.871094 180.695312 241.871094 C 171.609375 241.871094 163.972656 238.597656 157.765625 232.03125 C 151.554688 225.464844 148.460938 217.195312 148.460938 207.257812 C 148.460938 196.824219 151.875 188.433594 158.675781 182.125 C 165.5 175.796875 174.167969 172.644531 184.742188 172.644531 C 190.511719 172.644531 195.96875 173.933594 201.125 176.511719 C 206.28125 179.089844 209.160156 180.4375 209.773438 180.558594 C 211.558594 180.558594 212.75 179.902344 213.363281 178.574219 C 213.980469 177.265625 214.554688 175.359375 215.109375 172.921875 L 216.953125 172.921875 L 216.953125 202.65625 L 215.386719 202.65625 C 213.542969 195.039062 210.488281 188.589844 206.222656 183.316406 C 201.957031 178.039062 196.503906 175.398438 189.878906 175.398438 C 184.601562 175.398438 180.675781 178.453125 178.097656 184.5625 C 175.578125 190.671875 174.289062 197.792969 174.289062 205.886719 Z M 174.289062 205.886719 " fill-opacity="1" fill-rule="nonzero"/><path fill="#292424" d="M 318.078125 313.101562 L 208.664062 81.578125 C 203.546875 87.289062 196.125 90.898438 187.875 90.898438 C 187.28125 90.898438 186.683594 90.878906 186.089844 90.839844 L 187.875 95.105469 L 213.363281 156.417969 C 213.363281 156.417969 225.226562 156.574219 239.089844 182.242188 L 313.019531 316.910156 L 321.507812 326.925781 Z M 318.078125 313.101562 " fill-opacity="1" fill-rule="nonzero"/><path fill="#292424" d="M 184.382812 90.660156 C 177.539062 89.808594 171.472656 86.457031 167.085938 81.578125 L 57.671875 313.101562 L 54.222656 326.886719 L 62.710938 316.867188 L 136.640625 182.203125 C 150.523438 156.554688 162.367188 156.378906 162.367188 156.378906 L 187.023438 97.027344 L 186.445312 95.640625 Z M 184.382812 90.660156 " fill-opacity="1" fill-rule="nonzero"/><g clip-path="url(#7337d2f974)"><path fill="#292424" d="M 187.875 88.359375 C 201.898438 88.359375 213.285156 76.996094 213.285156 62.949219 C 213.285156 48.925781 201.917969 37.542969 187.875 37.542969 C 173.832031 37.542969 162.464844 48.90625 162.464844 62.949219 C 162.464844 76.996094 173.851562 88.359375 187.875 88.359375 Z M 187.875 43.195312 C 198.765625 43.195312 207.632812 52.0625 207.632812 62.949219 C 207.632812 73.839844 198.765625 82.707031 187.875 82.707031 C 176.984375 82.707031 168.117188 73.839844 168.117188 62.949219 C 168.117188 52.0625 176.984375 43.195312 187.875 43.195312 Z M 187.875 43.195312 " fill-opacity="1" fill-rule="nonzero"/></g><path fill="#292424" d="M 181.347656 69.496094 L 185.175781 69.496094 L 187.875 72.195312 L 190.574219 69.496094 L 194.402344 69.496094 L 194.402344 65.667969 L 197.117188 62.949219 L 194.402344 60.253906 L 194.402344 56.425781 L 190.574219 56.425781 L 187.875 53.726562 L 185.175781 56.425781 L 181.347656 56.425781 L 181.347656 60.253906 L 178.632812 62.949219 L 181.347656 65.667969 Z M 181.347656 69.496094 " fill-opacity="1" fill-rule="nonzero"/><path fill="#292424" d="M 187.875 79.691406 C 197.097656 79.691406 204.617188 72.175781 204.617188 62.949219 C 204.617188 53.726562 197.097656 46.210938 187.875 46.210938 C 178.652344 46.210938 171.132812 53.726562 171.132812 62.949219 C 171.132812 72.175781 178.652344 79.691406 187.875 79.691406 Z M 179.324219 59.421875 L 179.324219 54.402344 L 184.324219 54.402344 L 187.875 50.851562 L 191.425781 54.402344 L 196.425781 54.402344 L 196.425781 59.402344 L 199.976562 62.949219 L 196.425781 66.5 L 196.425781 71.5 L 191.425781 71.5 L 187.875 75.050781 L 184.324219 71.5 L 179.324219 71.5 L 179.324219 66.5 L 175.773438 62.949219 Z M 179.324219 59.421875 " fill-opacity="1" fill-rule="nonzero"/></svg>